<?xml version="1.0" encoding="UTF-8" standalone="no"?>
<svg
   xmlns:sketch="http://www.bohemiancoding.com/sketch/ns"
   xmlns:dc="http://purl.org/dc/elements/1.1/"
   xmlns:cc="http://creativecommons.org/ns#"
   xmlns:rdf="http://www.w3.org/1999/02/22-rdf-syntax-ns#"
   xmlns:svg="http://www.w3.org/2000/svg"
   xmlns="http://www.w3.org/2000/svg"
   xmlns:sodipodi="http://sodipodi.sourceforge.net/DTD/sodipodi-0.dtd"
   xmlns:inkscape="http://www.inkscape.org/namespaces/inkscape"
   viewBox="0 0 67.184921 57.633389"
   version="1.1"
   x="0px"
   y="0px"
   id="svg30"
   inkscape:version="0.91 r13725"
   sodipodi:docname="pelops.svg"
   width="67.184921"
   height="57.633389">
  <metadata
     id="metadata46">
    <rdf:RDF>
      <cc:Work
         rdf:about="">
        <dc:format>image/svg+xml</dc:format>
        <dc:type
           rdf:resource="http://purl.org/dc/dcmitype/StillImage" />
        <dc:title>27 - Chariot Wheel (Solid)</dc:title>
      </cc:Work>
    </rdf:RDF>
  </metadata>
  <defs
     id="defs44" />
  <sodipodi:namedview
     pagecolor="#ffffff"
     bordercolor="#666666"
     borderopacity="1"
     objecttolerance="10"
     gridtolerance="10"
     guidetolerance="10"
     inkscape:pageopacity="0"
     inkscape:pageshadow="2"
     inkscape:window-width="1615"
     inkscape:window-height="1026"
     id="namedview42"
     showgrid="false"
     inkscape:zoom="6.7805486"
     inkscape:cx="27.054456"
     inkscape:cy="18.976213"
     inkscape:window-x="431"
     inkscape:window-y="1464"
     inkscape:window-maximized="1"
     inkscape:current-layer="svg30"
     fit-margin-top="0"
     fit-margin-left="0"
     fit-margin-right="0"
     fit-margin-bottom="0" />
  <title
     id="title32">27 - Chariot Wheel (Solid)</title>
  <desc
     id="desc34">Created with Sketch.</desc>
  <path
     style="fill:#f72145;fill-rule:evenodd;stroke:none;stroke-width:10;stroke-miterlimit:4;stroke-dasharray:none;fill-opacity:1"
     d="m 33.70409,14.401125 c -9.7487,0 -17.67991,7.931209 -17.67991,17.679911 0,9.7487 7.93121,17.679908 17.67991,17.679908 9.74871,0 17.67992,-7.931208 17.67992,-17.679908 0,-9.748702 -7.93121,-17.679911 -17.67992,-17.679911 l 0,0 z m 11.92569,25.286397 c -0.12258,0.191535 -0.24987,0.379528 -0.38188,0.565167 -0.0188,0.02654 -0.0371,0.05368 -0.056,0.0801 -0.12671,0.175624 -0.25813,0.347117 -0.39191,0.516844 -0.0265,0.03302 -0.0519,0.06773 -0.079,0.100752 -0.13025,0.161477 -0.26521,0.318824 -0.40252,0.474418 -0.0318,0.03651 -0.0624,0.07421 -0.0949,0.110238 -0.16795,0.186815 -0.34064,0.370089 -0.51802,0.547478 -0.17857,0.178578 -0.36186,0.351247 -0.54926,0.519798 -0.033,0.02942 -0.0671,0.05716 -0.10015,0.08658 -0.15911,0.140259 -0.32059,0.278164 -0.48561,0.41135 -0.03,0.02414 -0.0606,0.04719 -0.0908,0.07133 -0.17327,0.136717 -0.3483,0.270503 -0.52746,0.399558 -0.0235,0.01705 -0.0477,0.03362 -0.0719,0.05068 -0.1874,0.132609 -0.37776,0.261664 -0.57165,0.386012 -0.01,0.006 -0.0188,0.01201 -0.0277,0.01765 l -4.72996,-8.191094 c 0.012,-0.0096 0.0217,-0.02065 0.0342,-0.03002 0.31471,-0.244577 0.59758,-0.52746 0.84216,-0.842154 0.01,-0.01237 0.0206,-0.02246 0.03,-0.03422 l 8.1911,4.729966 c -0.006,0.0096 -0.0124,0.01945 -0.0189,0.02942 l 0,0 z M 21.78135,24.470424 c 0.12022,-0.187406 0.24517,-0.371278 0.37363,-0.552792 0.0219,-0.03064 0.043,-0.06188 0.0654,-0.09253 0.12257,-0.170316 0.24987,-0.336507 0.37953,-0.50152 0.0306,-0.03831 0.0596,-0.0772 0.0902,-0.114921 0.12554,-0.156173 0.25637,-0.307631 0.38838,-0.457911 0.0365,-0.04125 0.0707,-0.08427 0.10783,-0.124937 0.16737,-0.186228 0.33946,-0.368332 0.51625,-0.54572 0.17797,-0.177389 0.36067,-0.350062 0.54808,-0.518022 0.0359,-0.033 0.0742,-0.06365 0.11083,-0.09606 0.155,-0.136725 0.31234,-0.271681 0.47323,-0.401334 0.0336,-0.0271 0.0683,-0.05304 0.10256,-0.08014 0.16914,-0.133778 0.34063,-0.265199 0.51625,-0.391315 0.0253,-0.01826 0.0513,-0.03595 0.0772,-0.05422 0.18799,-0.133188 0.37835,-0.262841 0.57282,-0.3866 0.007,-0.0053 0.0159,-0.01057 0.0241,-0.01532 l 4.72938,8.190512 c -0.012,0.0096 -0.0219,0.02065 -0.0342,0.03002 -0.3153,0.244576 -0.59759,0.527447 -0.84216,0.842153 -0.01,0.01237 -0.0206,0.02234 -0.03,0.03422 l -8.19052,-4.729375 c 0.007,-0.01117 0.0142,-0.0224 0.0213,-0.03418 l 0,0 z m 15.64613,4.729372 c -0.24458,-0.314694 -0.52745,-0.597577 -0.84215,-0.842153 -0.0124,-0.0096 -0.0225,-0.02065 -0.0342,-0.03002 l 4.72466,-8.182847 c 1.75444,1.116781 3.2478,2.610145 4.36459,4.36458 l -8.18286,4.724666 c -0.01,-0.01201 -0.0207,-0.02185 -0.03,-0.03422 l 0,0 z m -6.57044,6.63469 -4.72525,8.182845 c -1.75444,-1.116776 -3.24721,-2.609548 -4.364,-4.363985 l 8.18286,-4.725259 c 0.01,0.01201 0.0206,0.02186 0.03,0.03422 0.24457,0.314706 0.52686,0.597589 0.84216,0.842154 0.0124,0.0096 0.0223,0.02065 0.0342,0.03002 l 0,0 z m 5.79371,-3.75345 c 0,1.625369 -1.32128,2.946649 -2.94666,2.946649 -1.62537,0 -2.94665,-1.32128 -2.94665,-2.946649 0,-1.62537 1.32128,-2.94665 2.94665,-2.94665 1.62538,0 2.94666,1.32128 2.94666,2.94665 l 0,0 z m -1.11855,-4.34572 c -0.38896,-0.163832 -0.80503,-0.273457 -1.23877,-0.327675 l 0,-9.4558 c 2.10861,0.08604 4.13592,0.634119 5.96578,1.596495 l -4.72701,8.18698 0,0 z m -2.41744,-0.327675 c -0.43374,0.05428 -0.8504,0.163843 -1.23877,0.328263 l -4.72938,-8.191693 c 1.82929,-0.960019 3.85717,-1.506328 5.96815,-1.59237 l 0,9.4558 0,0 z m -3.75639,2.845298 c -0.16383,0.388954 -0.27345,0.805023 -0.32825,1.238769 l -9.45582,0 c 0.0861,-2.110392 0.63295,-4.138285 1.59296,-5.968147 l 8.19111,4.729378 0,0 z m -0.32825,2.417424 c 0.0548,0.433746 0.16442,0.849815 0.32825,1.238781 L 21.1708,38.636745 C 20.20901,36.806283 19.66094,34.77899 19.5743,32.670363 l 9.45582,0 0,0 z m 2.84587,3.756392 c 0.38896,0.163832 0.80503,0.273457 1.23877,0.328264 l 0,9.455802 c -2.10863,-0.08658 -4.13592,-0.634707 -5.96638,-1.596489 l 4.72761,-8.187577 0,0 z m 2.41744,0.328264 c 0.43374,-0.05476 0.84981,-0.164432 1.23877,-0.328852 l 4.72996,8.192284 c -1.82987,0.959428 -3.85775,1.506329 -5.96873,1.59237 l 0,-9.455802 0,0 z m 3.75579,-2.845875 c 0.16443,-0.388966 0.27404,-0.805035 0.32826,-1.238781 l 9.45581,0 c -0.0855,2.11098 -0.63236,4.138874 -1.59179,5.968748 l -8.19228,-4.729967 0,0 z m 0.32826,-2.417436 c -0.0543,-0.433746 -0.16383,-0.849815 -0.32826,-1.238769 l 8.18758,-4.727025 c 0.96237,1.829874 1.51044,3.857168 1.59649,5.965794 l -9.45581,0 0,0 z"
     sketch:type="MSShapeGroup"
     id="path40"
     inkscape:connector-curvature="0" />
  <path
     inkscape:connector-curvature="0"
     d="m 5.83246,57.633389 55.52,0 c 3.21443,0 5.83246,-2.614973 5.83246,-5.829402 l 0,-37.129555 c 0,-3.214428 -2.61497,-5.829401 -5.83246,-5.829401 l -7.15065,0 c -0.82884,0 -1.57816,-0.458767 -1.95741,-1.195853 L 49.94445,3.168552 C 48.94128,1.214204 46.95329,0 44.75732,0 L 22.42454,0 c -2.19597,0 -4.18396,1.214204 -5.18713,3.168552 l -2.29995,4.480626 c -0.37925,0.737086 -1.12857,1.195853 -1.95741,1.195853 l -7.14759,0 C 2.61803,8.845031 0,11.460004 0,14.674432 l 0,37.126497 c 0,3.214428 2.61497,5.83246 5.83246,5.83246 z M 3.63038,14.674432 c 0,-1.211145 0.98788,-2.199024 2.19902,-2.199024 l 7.15065,0 c 2.19597,0 4.18396,-1.214203 5.18713,-3.168551 L 20.47019,4.829289 C 20.84944,4.092203 21.59876,3.633436 22.4276,3.633436 l 22.32972,0 c 0.82884,0 1.57816,0.458767 1.95741,1.195853 l 2.29995,4.480626 c 1.00317,1.954348 2.99117,3.168552 5.18713,3.168552 l 7.15065,0 c 1.21421,0 2.19903,0.987878 2.19903,2.199024 l 0,37.126496 c 0,1.214204 -0.98788,2.199024 -2.19903,2.199024 l -55.52,0 c -1.2142,0 -2.19902,-0.987878 -2.19902,-2.199024 l 0,-37.129555 z"
     id="path4446"
     style="fill:#f72145;fill-opacity:1" />
</svg>
